#!OML:ASF E:\emotionWalksFemale\Project 1\Capture day 1\Session 1\Female1.ASF
:FULLY-SPECIFIED
:DEGREES
3048
root 8.46241 15.2599 36.7213 -4.76369 -17.8748 1.30625
lowerback 7.31175 -0.784736 1.26825
upperback -4.3293 -0.850141 0.848809
thorax -8.69168 -0.462206 0.31132
lowerneck -5.87585 -2.0205 -4.90722
upperneck 28.9 -4.74026 8.55355
head 10.4856 -1.87416 3.40882
rclavicle -4.13472e-014 -7.95139e-015
rhumerus -44.6745 9.96572 -86.2509
rradius 41.8536
rwrist 14.3287
rhand -9.51072 -50.7875
rfingers 7.12502
rthumb 16.4548 -80.1097
lclavicle -4.13472e-014 -7.95139e-015
lhumerus -44.8324 -0.590795 84.5009
lradius 41.9849
lwrist -6.96421
lhand -9.42296 -30.4844
lfingers 7.12502
lthumb 16.5393 -1.16925
rfemur -2.45972 21.029 28.1501
rtibia 25.5369
rfoot -15.1504 -12.0455
rtoes -4.50341
lfemur -15.0643 -8.61524 -17.442
ltibia 40.3401
lfoot -12.712 -0.491041
ltoes -32.2556
3049
root 8.47406 15.2613 36.7897 -4.97154 -18.6765 1.50425
lowerback 7.32695 -0.714328 1.28668
upperback -4.35643 -0.755112 0.82588
thorax -8.73012 -0.418064 0.2633
lowerneck -6.1427 -1.81897 -4.33367
upperneck 29.4311 -4.41013 7.92389
head 10.6859 -1.71868 3.12455
rclavicle 4.97956e-014 0
rhumerus -45.0182 10.0315 -86.2182
rradius 41.9654
rwrist 14.1075
rhand -9.9614 -51.1296
rfingers 7.12502
rthumb 16.0208 -80.4872
lclavicle 4.97956e-014 0
lhumerus -45.1397 -0.196109 84.3777
lradius 41.9302
lwrist -7.44581
lhand -9.07486 -30.3579
lfingers 7.12502
lthumb 16.8744 -1.071
rfemur -2.09754 21.3513 27.9579
rtibia 25.5825
rfoot -15.4072 -11.573
rtoes -4.38228
lfemur -14.3406 -8.41067 -17.8017
ltibia 40.1416
lfoot -12.5951 0.138567
ltoes -33.1466
3050
root 8.48295 15.2668 36.8384 -4.75867 -19.1 1.66278
lowerback 7.15635 -0.781318 1.19282
upperback -4.46462 -0.857967 0.8269
thorax -8.74644 -0.463248 0.331075
lowerneck -5.97922 -1.66677 -4.84311
upperneck 29.0258 -4.32244 8.78004
head 10.5203 -1.6504 3.52846
rclavicle -5.40694e-014 -2.38542e-014
rhumerus -45.1124 10.1346 -86.2561
rradius 41.9771
rwrist 13.5786
rhand -9.771 -51.3162
rfingers 7.12502
rthumb 16.2042 -80.6589
lclavicle -5.40694e-014 -2.38542e-014
lhumerus -45.2381 0.22796 84.2067
lradius 41.7371
lwrist -7.76416
lhand -9.07424 -30.5286
lfingers 7.12502
lthumb 16.875 -1.24184
rfemur -2.27976 21.5711 27.671
rtibia 25.6902
rfoot -15.7611 -11.3234
rtoes -3.32153
lfemur -14.2507 -8.14081 -18.0028
ltibia 39.9257
lfoot -12.3974 0.570684
ltoes -35.9113
3051
root 8.49474 15.2698 36.8999 -4.86635 -19.6925 1.95356
lowerback 7.09563 -0.787978 1.04003
upperback -4.47932 -0.886361 0.807772
thorax -8.72438 -0.468803 0.399944
lowerneck -6.21788 -1.44516 -4.35463
upperneck 29.2792 -3.96505 8.29207
head 10.615 -1.47878 3.30752
rclavicle 2.87244e-014 -3.97569e-015
rhumerus -45.1394 9.98384 -86.0601
rradius 41.7555
rwrist 13.5027
rhand -9.2487 -50.9845
rfingers 7.12502
rthumb 16.707 -80.2855
lclavicle 2.87244e-014 -3.97569e-015
lhumerus -45.2686 0.427023 84.1598
lradius 41.4313
lwrist -7.85729
lhand -9.09373 -30.8044
lfingers 7.12502
lthumb 16.8562 -1.51598
rfemur -2.1567 21.7991 27.3548
rtibia 25.8723
rfoot -16.0992 -11.156
rtoes -4.42018
lfemur -13.7661 -7.6859 -18.4239
ltibia 39.6591
lfoot -12.2882 1.04787
ltoes -39.1574
3052
root 8.50548 15.2743 36.9678 -5.03615 -20.3514 2.28879
lowerback 6.91636 -0.740826 0.913033
upperback -4.45606 -0.846395 0.727364
thorax -8.5926 -0.44469 0.37715
lowerneck -6.21131 -1.32209 -4.10919
upperneck 29.2735 -3.76758 8.06158
head 10.5875 -1.38812 3.20037
rclavicle 3.47873e-014 -2.46493e-014
rhumerus -45.1896 9.44225 -85.7605
rradius 41.3658
rwrist 14.0533
rhand -9.54138 -50.9302
rfingers 7.12502
rthumb 16.4253 -80.2548
lclavicle 3.47873e-014 -2.46493e-014
lhumerus -45.3214 0.369716 84.1574
lradius 41.2169
lwrist -7.82489
lhand -8.80302 -30.722
lfingers 7.12502
lthumb 17.136 -1.45768
rfemur -1.98274 22.0201 27.0074
rtibia 26.0793
rfoot -16.558 -10.9559
rtoes -5.68048
lfemur -13.1972 -7.1422 -18.8976
ltibia 39.4289
lfoot -12.4364 1.26858
ltoes -39.2742
